<?xml version="1.0" encoding="utf-8"?>
<!-- Generator: Adobe Illustrator 15.0.0, SVG Export Plug-In . SVG Version: 6.00 Build 0)  -->
<!DOCTYPE svg PUBLIC "-//W3C//DTD SVG 1.1//EN" "http://www.w3.org/Graphics/SVG/1.1/DTD/svg11.dtd">
<svg version="1.1" id="Layer_1" xmlns="http://www.w3.org/2000/svg" xmlns:xlink="http://www.w3.org/1999/xlink" x="0px" y="0px"
	 width="81.02px" height="100px" viewBox="0 0 81.02 100" enable-background="new 0 0 81.02 100" xml:space="preserve">
<path fill="#B22222" d="M78.452,7.348v85.645H14.338c-9.412,0-16.904-6.541-16.904-16.271V2.562c0-5.261,4.305-9.569,9.565-9.569
	h59.333v73.524H14.338c-6.538,0-11.164,3.506-11.164,9.888v0.321c0,6.377,4.626,10.523,11.164,10.523h59.648V7.348H78.452z
	 M66.332,74.492H14.973c-1.438,0-2.708,0.796-2.708,2.072c0,1.595,1.276,2.394,2.708,2.394h51.357L66.332,74.492L66.332,74.492z"/>
</svg>
